<?xml version="1.0" encoding="UTF-8" standalone="no"?>
<svg
   width="512"
   height="512"
   viewBox="0 0 512 512"
   version="1.1"
   id="svg5"
   xmlns="http://www.w3.org/2000/svg"
   xmlns:svg="http://www.w3.org/2000/svg">
  <defs
     id="defs2" />
  <g
     id="layer1">
    <rect
       style="fill:#dc3545;fill-opacity:1;stroke-width:0.264583"
       id="rect34"
       width="512"
       height="512"
       x="0"
       y="0"
       ry="128" />
    <path
       id="path180"
       style="fill:#ffffff;stroke-width:0.264583"
       d="M 256,96 A 160,160 0 0 0 96,256 160,160 0 0 0 256,416 160,160 0 0 0 416,256 160,160 0 0 0 256,96 Z m 0,53.33 A 106.67,106.67 0 0 1 362.67,256 106.67,106.67 0 0 1 256,362.67 106.67,106.67 0 0 1 149.33,256 106.67,106.67 0 0 1 256,149.33 Z" />
    <path
       style="fill:#ffffff;fill-opacity:1;stroke-width:0.264583"
       d="M 176,256 H 336"
       id="path182" />
    <path
       style="fill:#ffffff;fill-opacity:1;stroke:#ffffff;stroke-width:21.33;stroke-linecap:round;stroke-linejoin:miter;stroke-dasharray:none;stroke-opacity:1"
       d="M 256,176 V 336"
       id="path184" />
    <path
       style="fill:#ffffff;fill-opacity:1;stroke:#ffffff;stroke-width:21.33;stroke-linecap:round;stroke-linejoin:miter;stroke-dasharray:none;stroke-opacity:1"
       d="M 176,256 H 336"
       id="path186" />
  </g>
</svg>