<?xml version="1.0" encoding="UTF-8" standalone="no"?>
<svg
   width="192"
   height="192"
   viewBox="0 0 192 192"
   version="1.1"
   id="svg5"
   xmlns="http://www.w3.org/2000/svg"
   xmlns:svg="http://www.w3.org/2000/svg">
  <defs
     id="defs2" />
  <g
     id="layer1">
    <rect
       style="fill:#dc3545;fill-opacity:1;stroke-width:0.264583"
       id="rect34"
       width="192"
       height="192"
       x="0"
       y="0"
       ry="48" />
    <path
       id="path180"
       style="fill:#ffffff;stroke-width:0.264583"
       d="M 96,36 A 60,60 0 0 0 36,96 60,60 0 0 0 96,156 60,60 0 0 0 156,96 60,60 0 0 0 96,36 Z m 0,20 A 40,40 0 0 1 136,96 40,40 0 0 1 96,136 40,40 0 0 1 56,96 40,40 0 0 1 96,56 Z" />
    <path
       style="fill:#ffffff;fill-opacity:1;stroke-width:0.264583"
       d="M 66,96 H 126"
       id="path182" />
    <path
       style="fill:#ffffff;fill-opacity:1;stroke:#ffffff;stroke-width:8;stroke-linecap:round;stroke-linejoin:miter;stroke-dasharray:none;stroke-opacity:1"
       d="M 96,66 V 126"
       id="path184" />
    <path
       style="fill:#ffffff;fill-opacity:1;stroke:#ffffff;stroke-width:8;stroke-linecap:round;stroke-linejoin:miter;stroke-dasharray:none;stroke-opacity:1"
       d="M 66,96 H 126"
       id="path186" />
  </g>
</svg>